HIERARCHY
ROOT Hips
{
 OFFSET 0.000000 0.000000 0.000000
 CHANNELS 6 Xposition Yposition Zposition Yrotation Xrotation Zrotation
 JOINT Chest
 {
  OFFSET 0.000000 9.585900 0.002600
  CHANNELS 3 Yrotation Xrotation Zrotation
  JOINT Chest2
  {
   OFFSET 0.000000 9.601200 -0.005300
   CHANNELS 3 Yrotation Xrotation Zrotation
   JOINT Chest3
   {
    OFFSET 0.000000 9.561800 0.000000
    CHANNELS 3 Yrotation Xrotation Zrotation
    JOINT Chest4
    {
     OFFSET 0.000000 9.552100 0.000000
     CHANNELS 3 Yrotation Xrotation Zrotation
     JOINT Neck
     {
      OFFSET 0.000000 14.453000 0.000000
      CHANNELS 3 Yrotation Xrotation Zrotation
      JOINT Head
      {
       OFFSET 0.000000 8.936500 -0.011300
       CHANNELS 3 Yrotation Xrotation Zrotation
       End Site
       {
        OFFSET 0.000000 17.073600 -0.006000
       }
      }
     }
     JOINT RightCollar
     {
      OFFSET -2.921100 9.558500 0.000000
      CHANNELS 3 Yrotation Xrotation Zrotation
      JOINT RightShoulder
      {
       OFFSET -13.519700 0.000000 0.000000
       CHANNELS 3 Yrotation Xrotation Zrotation
       JOINT RightElbow
       {
        OFFSET 0.000000 -29.696600 0.000000
        CHANNELS 3 Yrotation Xrotation Zrotation
        JOINT RightWrist
        {
         OFFSET 0.000000 -24.004700 0.000000
         CHANNELS 3 Yrotation Xrotation Zrotation
         End Site
         {
          OFFSET 0.000000 -17.728500 0.000000
         }
        }
       }
      }
     }
     JOINT LeftCollar
     {
      OFFSET 2.921100 9.558500 0.000000
      CHANNELS 3 Yrotation Xrotation Zrotation
      JOINT LeftShoulder
      {
       OFFSET 13.519700 0.000000 0.000000
       CHANNELS 3 Yrotation Xrotation Zrotation
       JOINT LeftElbow
       {
        OFFSET 0.000000 -29.696600 0.000000
        CHANNELS 3 Yrotation Xrotation Zrotation
        JOINT LeftWrist
        {
         OFFSET 0.000000 -24.004700 0.000000
         CHANNELS 3 Yrotation Xrotation Zrotation
         End Site
         {
          OFFSET 0.000000 -17.728500 0.000000
         }
        }
       }
      }
     }
    }
   }
  }
 }
 JOINT RightHip
 {
  OFFSET -7.771700 -0.012900 -0.001300
  CHANNELS 3 Yrotation Xrotation Zrotation
  JOINT RightKnee
  {
   OFFSET 0.000000 -40.869800 0.001200
   CHANNELS 3 Yrotation Xrotation Zrotation
   JOINT RightAnkle
   {
    OFFSET 0.000000 -39.717900 0.002100
    CHANNELS 3 Yrotation Xrotation Zrotation
    JOINT RightToe
    {
     OFFSET 0.000000 -4.965400 11.033500
     CHANNELS 3 Yrotation Xrotation Zrotation
     End Site
     {
      OFFSET 0.000000 -1.423100 5.872300
     }
    }
   }
  }
 }
 JOINT LeftHip
 {
  OFFSET 7.771700 -0.012900 -0.001300
  CHANNELS 3 Yrotation Xrotation Zrotation
  JOINT LeftKnee
  {
   OFFSET 0.000000 -40.869800 0.001200
   CHANNELS 3 Yrotation Xrotation Zrotation
   JOINT LeftAnkle
   {
    OFFSET 0.000000 -39.717900 0.002100
    CHANNELS 3 Yrotation Xrotation Zrotation
    JOINT LeftToe
    {
     OFFSET 0.000000 -4.965400 11.033500
     CHANNELS 3 Yrotation Xrotation Zrotation
     End Site
     {
      OFFSET 0.000000 -1.423100 5.872300
     }
    }
   }
  }
 }
}
MOTION
Frames: 11
Frame Time: 0.008333
-8.139968 58.009339 38.959090 164.422847 -50.331534 4.063381 -0.348962 23.554806 4.180067 -0.125071 3.569471 0.525190 -0.185923 5.735545 0.842467 -0.284901 19.815764 2.915558 -0.707522 21.909467 -2.372375 -0.597335 4.901801 -4.104414 7.704885 -0.512474 -0.802466 38.027997 -45.979712 -17.660942 42.323222 -1.151287 -1.524276 7.665826 -10.383524 -46.818580 -10.282695 -2.734705 -3.140104 -40.304258 -38.977824 10.769469 -22.946945 -1.596512 15.562668 -23.070428 -11.782336 39.277971 16.856519 -22.890653 3.486020 -11.907864 68.368868 -5.617897 2.527394 4.134228 2.862942 -0.105117 0.319072 -0.041905 -7.432404 -23.068651 -0.855007 34.065117 67.500039 28.207388 -21.442902 2.467421 -3.545921 -0.259923 -0.657555 -0.107765
-8.140652 58.011079 38.958944 164.431734 -50.329664 4.066035 -0.357889 23.555735 4.170168 -0.125391 3.568033 0.525101 -0.187371 5.750343 0.843691 -0.284941 19.804641 2.913603 -0.695706 21.907969 -2.372897 -0.562434 4.900287 -4.113392 7.699039 -0.520617 -0.796380 38.036386 -45.974268 -17.662976 42.311827 -1.152261 -1.522920 7.658633 -10.389482 -46.820093 -10.279633 -2.736167 -3.140289 -40.323377 -38.963706 10.787296 -22.938647 -1.612194 15.566518 -23.073743 -11.777918 39.273769 16.851930 -22.889241 3.477906 -11.902947 68.369272 -5.617473 2.528632 4.137250 2.861957 -0.107780 0.315189 -0.040565 -7.419383 -23.071194 -0.867052 34.087506 67.491734 28.229689 -21.444518 2.480136 -3.534515 -0.277448 -0.662642 -0.110798
-8.140364 58.010556 38.960843 164.438200 -50.311398 4.061349 -0.361333 23.545244 4.171138 -0.125821 3.567950 0.524741 -0.186201 5.746461 0.843727 -0.289481 19.808262 2.910400 -0.653499 21.912048 -2.374712 -0.581811 4.891167 -4.101427 7.696513 -0.530643 -0.790729 38.041708 -45.970637 -17.657955 42.296863 -1.145828 -1.526068 7.652072 -10.400666 -46.821309 -10.272434 -2.739673 -3.140288 -40.330802 -38.963469 10.795002 -22.940664 -1.615687 15.567113 -23.083613 -11.766089 39.262849 16.849315 -22.907722 3.474860 -11.874128 68.367957 -5.594647 2.518096 4.142072 2.864326 -0.105147 0.314376 -0.042797 -7.406513 -23.091703 -0.864989 34.079537 67.493540 28.228419 -21.444001 2.487888 -3.527582 -0.277231 -0.661735 -0.113544
-8.140209 58.011486 38.961412 164.438140 -50.305342 4.064106 -0.358789 23.554447 4.174864 -0.126927 3.561037 0.523036 -0.187031 5.741979 0.842169 -0.289611 19.811797 2.913307 -0.641706 21.908420 -2.379256 -0.543714 4.889645 -4.118782 7.692741 -0.538742 -0.793258 38.028756 -45.971131 -17.641155 42.299054 -1.140780 -1.530971 7.635990 -10.411253 -46.820161 -10.270779 -2.740918 -3.143918 -40.337607 -38.968230 10.803734 -22.939560 -1.618927 15.574634 -23.083405 -11.759952 39.254745 16.851996 -22.912173 3.472277 -11.876356 68.365709 -5.597600 2.514166 4.144407 2.866028 -0.100564 0.315101 -0.045166 -7.402649 -23.097530 -0.862721 34.071347 67.494339 28.219689 -21.463614 2.492097 -3.520690 -0.260478 -0.664538 -0.120299
-8.139828 58.012224 38.962075 164.442249 -50.299687 4.061504 -0.358925 23.558615 4.178803 -0.126344 3.565755 0.524420 -0.185716 5.740251 0.843475 -0.289856 19.806522 2.914108 -0.643737 21.901450 -2.384292 -0.508508 4.887707 -4.134341 7.684256 -0.547925 -0.796265 38.025489 -45.968979 -17.635796 42.292346 -1.139728 -1.531898 7.621874 -10.415864 -46.815005 -10.270000 -2.743990 -3.147124 -40.326138 -38.970354 10.803425 -22.952490 -1.626982 15.573292 -23.086132 -11.747312 39.250529 16.853188 -22.916879 3.470387 -11.883725 68.363437 -5.602121 2.512489 4.146715 2.866718 -0.102973 0.315471 -0.047173 -7.403963 -23.102972 -0.858305 34.086420 67.489884 28.228528 -21.467065 2.500383 -3.521642 -0.254101 -0.667830 -0.115808
-8.139612 58.011612 38.963664 164.444579 -50.285648 4.058625 -0.357165 23.549124 4.183490 -0.127703 3.563060 0.522373 -0.183777 5.743874 0.846533 -0.289053 19.806395 2.914532 -0.629648 21.899373 -2.389016 -0.442702 4.881207 -4.163199 7.679452 -0.552730 -0.798646 38.013315 -45.968362 -17.619498 42.273665 -1.139800 -1.535967 7.624402 -10.412433 -46.809919 -10.270134 -2.746314 -3.147917 -40.327099 -38.968961 10.804890 -22.958413 -1.630252 15.577316 -23.090638 -11.722525 39.252562 16.855627 -22.931154 3.466705 -11.893124 68.360819 -5.609146 2.515418 4.148409 2.867383 -0.106133 0.317064 -0.048133 -7.410823 -23.119163 -0.844457 34.094154 67.492876 28.222080 -21.474870 2.507763 -3.515892 -0.270327 -0.670595 -0.115869
-8.140054 58.011428 38.964566 164.447271 -50.276799 4.058881 -0.358420 23.541401 4.182389 -0.125577 3.566479 0.525737 -0.186243 5.740198 0.843445 -0.285421 19.811961 2.923823 -0.594251 21.893064 -2.399163 -0.414671 4.873831 -4.175016 7.660863 -0.557336 -0.808166 38.003118 -45.962784 -17.598867 42.252325 -1.150820 -1.545417 7.647803 -10.408022 -46.805096 -10.269840 -2.756158 -3.153131 -40.342777 -38.963532 10.813626 -22.957747 -1.629416 15.580165 -23.093474 -11.719012 39.256390 16.858987 -22.938366 3.459770 -11.909512 68.358662 -5.621062 2.520807 4.145819 2.867355 -0.106692 0.320686 -0.048849 -7.422154 -23.129606 -0.832779 34.103572 67.498646 28.206604 -21.465377 2.512949 -3.500399 -0.286141 -0.671383 -0.118765
-8.139168 58.010976 38.965623 164.444103 -50.268640 4.053732 -0.354445 23.538497 4.191728 -0.125598 3.566117 0.526084 -0.186200 5.739789 0.844016 -0.283987 19.809668 2.922590 -0.573542 21.889460 -2.403578 -0.406402 4.871206 -4.176441 7.657800 -0.554137 -0.809658 37.999662 -45.963853 -17.596569 42.224330 -1.160371 -1.543302 7.669995 -10.402917 -46.805102 -10.269964 -2.757982 -3.152124 -40.362373 -38.956378 10.830163 -22.947441 -1.634527 15.579246 -23.109208 -11.716019 39.268276 16.863239 -22.948208 3.457318 -11.913538 68.356335 -5.611107 2.525904 4.149024 2.860242 -0.108905 0.320197 -0.049739 -7.460585 -23.137492 -0.798505 34.108934 67.507859 28.172457 -21.469008 2.513565 -3.501455 -0.264576 -0.670079 -0.115502
-8.140261 58.010927 38.965607 164.441026 -50.265342 4.059437 -0.352185 23.537584 4.190658 -0.125421 3.566475 0.526145 -0.185974 5.740118 0.844261 -0.284966 19.808479 2.921829 -0.552772 21.885265 -2.408445 -0.399062 4.867363 -4.176479 7.656374 -0.554846 -0.810871 37.957299 -45.954244 -17.564576 42.196558 -1.184410 -1.546618 7.669512 -10.394722 -46.795833 -10.276016 -2.756193 -3.152267 -40.382321 -38.947574 10.855251 -22.936949 -1.644770 15.578367 -23.115917 -11.716805 39.277713 16.872617 -22.949560 3.447109 -11.952269 68.355032 -5.637482 2.539465 4.142357 2.855406 -0.107776 0.325550 -0.048493 -7.478225 -23.140444 -0.790740 34.103618 67.511814 28.146059 -21.464167 2.514720 -3.499978 -0.264623 -0.669626 -0.115346
-8.141739 58.010484 38.965433 164.436933 -50.261040 4.066226 -0.353582 23.537329 4.187267 -0.128832 3.572193 0.526239 -0.182490 5.734218 0.843259 -0.284800 19.808308 2.920429 -0.527243 21.880464 -2.414116 -0.354140 4.857479 -4.190349 7.657899 -0.549821 -0.812150 37.944365 -45.957787 -17.559488 42.178708 -1.192943 -1.546336 7.675635 -10.393778 -46.788038 -10.273945 -2.751013 -3.152982 -40.402336 -38.936617 10.883108 -22.942238 -1.665966 15.585862 -23.106628 -11.714938 39.265987 16.881124 -22.953936 3.439946 -11.967561 68.356859 -5.648616 2.543588 4.138523 2.853521 -0.109873 0.326823 -0.046573 -7.492914 -23.143844 -0.784964 34.107307 67.512624 28.131198 -21.465817 2.512545 -3.500628 -0.260431 -0.666647 -0.113984
-8.143233 58.009790 38.965034 164.428135 -50.256343 4.075352 -0.352988 23.538225 4.183532 -0.125257 3.575735 0.526507 -0.186591 5.739678 0.842812 -0.287514 19.808192 2.916654 -0.499772 21.866328 -2.417745 -0.298614 4.845765 -4.209577 7.674147 -0.549574 -0.807103 37.932993 -45.960780 -17.568152 42.154160 -1.201839 -1.546572 7.687518 -10.390306 -46.783269 -10.261723 -2.758146 -3.152408 -40.413451 -38.918645 10.905211 -22.949210 -1.701126 15.591730 -23.106110 -11.710835 39.240730 16.892773 -22.960289 3.433478 -11.962920 68.360905 -5.640472 2.540734 4.136479 2.852279 -0.111934 0.326086 -0.046071 -7.502068 -23.147389 -0.779219 34.094013 67.520820 28.099585 -21.444147 2.507035 -3.496415 -0.261600 -0.660803 -0.113051
